<svg width="80" height="80" viewBox="0 0 80 80" fill="none" xmlns="http://www.w3.org/2000/svg">
<g clip-path="url(#clip0)">
<path d="M78.9998 71.91C79.6535 70.7902 79.9979 69.5167 79.9979 68.22C79.9979 66.9233 79.6535 65.6499 78.9998 64.53L46.3998 8.00004C45.7564 6.87682 44.8228 5.94724 43.6969 5.30862C42.571 4.67 41.294 4.34582 39.9998 4.37004C38.7111 4.36085 37.4428 4.69158 36.3227 5.32888C35.2026 5.96618 34.2703 6.88753 33.6198 8.00004L23.0598 26.33L25.7198 27.87C33.5658 32.3911 40.0787 38.904 44.5998 46.75C48.6445 53.6739 50.9792 61.4629 51.4098 69.47H43.9998C43.5161 62.7764 41.5193 56.2798 38.1598 50.47C34.3344 43.7156 28.7812 38.1003 22.0698 34.2L19.4098 32.66L9.5798 49.79L12.2298 51.33C15.4851 53.241 18.2632 55.8671 20.3543 59.0097C22.4453 62.1524 23.7945 65.7293 24.2998 69.47H7.3898C7.17663 69.4747 6.96606 69.4225 6.77976 69.3188C6.59345 69.2151 6.43814 69.0637 6.3298 68.88C6.21985 68.6937 6.16186 68.4814 6.16186 68.265C6.16186 68.0487 6.21985 67.8363 6.3298 67.65L11.0598 59.51C9.46198 58.1744 7.64063 57.1316 5.6798 56.43L0.999802 64.57C0.338744 65.6965 -0.00976562 66.9789 -0.00976562 68.285C-0.00976562 69.5911 0.338744 70.8736 0.999802 72C1.63967 73.1271 2.56994 74.062 3.69376 74.7074C4.81759 75.3529 6.0939 75.6853 7.3898 75.67H30.6298V72.55C30.6134 67.1567 29.2046 61.859 26.5398 57.17C24.3474 53.4114 21.3944 50.1518 17.8698 47.6L21.5798 41.21C26.2207 44.4121 30.091 48.6068 32.9098 53.49C36.2438 59.2677 38.0024 65.8194 38.0098 72.49V75.57H57.6898V72.55C57.6946 62.4076 55.0174 52.4442 49.9298 43.67C45.4112 35.7783 39.0846 29.0713 31.4698 24.1L38.9798 11.1C39.0857 10.9247 39.2354 10.7799 39.4143 10.6799C39.5931 10.58 39.7949 10.5283 39.9998 10.53C40.2121 10.5228 40.4222 10.574 40.6074 10.6781C40.7925 10.7821 40.9456 10.935 41.0498 11.12L73.6998 67.61C73.8089 67.7948 73.8664 68.0055 73.8664 68.22C73.8664 68.4346 73.8089 68.6453 73.6998 68.83C73.5975 69.019 73.4434 69.1748 73.2557 69.2793C73.0679 69.3838 72.8543 69.4326 72.6398 69.42H64.9998C65.0998 71.49 65.0998 73.51 64.9998 75.58H72.6498C73.942 75.6042 75.2164 75.2752 76.3354 74.6285C77.4544 73.9817 78.3756 73.0418 78.9998 71.91Z" fill="white"/>
</g>
<defs>
<clipPath id="clip0">
<rect width="80" height="80" fill="white"/>
</clipPath>
</defs>
</svg>
